<?xml version="1.0" encoding="iso-8859-1"?>
<!-- Generator: Adobe Illustrator 27.0.0, SVG Export Plug-In . SVG Version: 6.00 Build 0)  -->
<svg fill="#1A1A1A" version="1.1" baseProfile="basic" id="&#x421;&#x43B;&#x43E;&#x439;_1"
	 xmlns="http://www.w3.org/2000/svg" xmlns:xlink="http://www.w3.org/1999/xlink" x="0px" y="0px" viewBox="0 0 24 24"
	 xml:space="preserve">
<g>
	<path d="M22.105,7.553c-0.224,0.448-0.523,0.723-0.914,0.838c-0.614,0.183-1.343-0.052-1.685-0.253
		c-0.451-0.265-0.974-0.667-1.527-1.092C16.214,5.688,14.018,4,11,4C8.586,4,7.346,5.239,5.293,7.293L6.7,8.714
		c0.546-0.425,4.031-0.015,5.552,1.194C14.511,11.703,16.142,13,18,13c2.659,0,4.879-1.741,5.94-4.658L22.105,7.553z"/>
	<path d="M16.192,15.391c-0.613,0.18-1.343-0.052-1.685-0.253c-0.451-0.265-0.974-0.667-1.527-1.092C11.214,12.688,9.018,11,6,11
		c-2.414,0-3.654,1.239-5.707,3.293L1.7,15.714c0.545-0.427,4.032-0.014,5.552,1.194C9.511,18.703,11.142,20,13,20
		c2.659,0,4.879-1.741,5.94-4.658l-1.834-0.789C16.881,15.001,16.583,15.275,16.192,15.391z"/>
</g>
</svg>