<svg xmlns="http://www.w3.org/2000/svg" viewBox="0 0 48 60" x="0px" y="0px"><path d="M37.27,18A8,8,0,0,0,32,4H16a8,8,0,0,0-5.27,14,8,8,0,0,0,0,12A8,8,0,0,0,16,44h2a8,8,0,0,0,8-8V30.92A8,8,0,0,0,30,32h2a8,8,0,0,0,5.27-14ZM22,36a4,4,0,0,1-4,4H16a4,4,0,0,1,0-8h6Zm0-8H16a4,4,0,0,1,0-8h6Zm0-12H16a4,4,0,0,1,0-8h6ZM32,28H30a4,4,0,0,1,0-8h2a4,4,0,0,1,0,8Zm0-12H26V8h6a4,4,0,0,1,0,8Z"/><text x="0" y="63" fill="#000000" font-size="5px" font-weight="bold" font-family="'Helvetica Neue', Helvetica, Arial-Unicode, Arial, Sans-serif">Created by Martin Sturk</text><text x="0" y="68" fill="#000000" font-size="5px" font-weight="bold" font-family="'Helvetica Neue', Helvetica, Arial-Unicode, Arial, Sans-serif">from the Noun Project</text></svg>